<?xml version="1.0" encoding="UTF-8" standalone="no"?>
<svg
   xmlns:dc="http://purl.org/dc/elements/1.1/"
   xmlns:cc="http://creativecommons.org/ns#"
   xmlns:rdf="http://www.w3.org/1999/02/22-rdf-syntax-ns#"
   xmlns:svg="http://www.w3.org/2000/svg"
   xmlns="http://www.w3.org/2000/svg"
   viewBox="0 0 1280 746.66669"
   height="746.66669"
   width="1280"
   xml:space="preserve"
   id="svg2"
   version="1.1"><metadata
     id="metadata8"><rdf:RDF><cc:Work
         rdf:about=""><dc:format>image/svg+xml</dc:format><dc:type
           rdf:resource="http://purl.org/dc/dcmitype/StillImage" /></cc:Work></rdf:RDF></metadata><defs
     id="defs6"><clipPath
       id="clipPath18"
       clipPathUnits="userSpaceOnUse"><path
         id="path16"
         d="M 0,560 H 960 V 0 H 0 Z" /></clipPath></defs><g
     transform="matrix(1.3333333,0,0,-1.3333333,0,746.66667)"
     id="g10"><g
       id="g12"><g
         clip-path="url(#clipPath18)"
         id="g14"><g
           transform="translate(515.5576,215.1406)"
           id="g20"><path
             id="path22"
             style="fill:#ffffff;fill-opacity:1;fill-rule:nonzero;stroke:none"
             d="m 0,0 c -41.444,-33.638 -89.795,-42.729 -107.999,-20.303 -18.204,22.427 0.636,67.876 42.078,101.515 41.443,33.639 89.798,42.73 108.001,20.304 C 60.283,79.09 41.441,33.641 0,0" /></g><g
           transform="translate(515.5576,215.1406)"
           id="g24"><path
             id="path26"
             style="fill:none;stroke:#44a1a0;stroke-width:9.5;stroke-linecap:butt;stroke-linejoin:miter;stroke-miterlimit:10;stroke-dasharray:none;stroke-opacity:1"
             d="m 0,0 c -41.444,-33.638 -89.795,-42.729 -107.999,-20.303 -18.204,22.427 0.636,67.876 42.078,101.515 41.443,33.639 89.798,42.73 108.001,20.304 C 60.283,79.09 41.441,33.641 0,0 Z" /></g><g
           transform="translate(312.2031,246.3887)"
           id="g28"><path
             id="path30"
             style="fill:#ffffff;fill-opacity:1;fill-rule:nonzero;stroke:none"
             d="m 0,0 c -2.522,-2.583 -5.209,-3.737 -8.708,-3.737 -3.552,0 -6.314,1.179 -8.958,3.821 -2.641,2.644 -3.818,5.389 -3.818,8.903 0,3.545 1.195,6.341 3.873,9.064 2.638,2.68 5.366,3.876 8.848,3.876 3.464,0 6.15,-1.17 8.706,-3.789 2.628,-2.694 3.8,-5.497 3.8,-9.098 C 3.743,5.438 2.588,2.652 0,0 m 376.797,63.611 h -24 V 42.96 c -2,0.942 -5.27,0.216 -8.129,0.216 -2.912,0 -5.623,0.435 -8.27,-2.565 h -13.896 -6.524 -16.181 v 1.688 c -4,1.492 -8.234,2.246 -12.486,2.246 -9.746,0 -18.268,-3.498 -25.219,-10.401 -1.512,-1.501 -1.994,-3.307 -3.181,-4.947 -1.291,2.86 -3.099,5.417 -5.392,7.616 -5.131,4.905 -11.356,7.493 -18.261,7.493 -6.407,0 -12.926,-1.415 -17.654,-4.64 -0.255,-0.175 -0.513,-0.377 -0.761,-0.558 -0.091,0.068 -0.181,0.095 -0.273,0.165 -4.552,3.442 -9.52,3.903 -14.762,3.903 -2.723,0 -5.398,0.435 -7.997,-2.565 h -21.014 v 1.835 c -2,1.287 -5.911,0.73 -9.249,0.73 -2.908,0 -5.334,0.435 -7.977,-2.565 -3.036,0 -6.248,1.689 -9.232,2.216 -7.089,1.253 -14.093,-1.815 -21.34,-0.313 -6.336,1.312 -11.957,4.031 -18.594,4.031 -9.748,-0.001 -18.298,-5.499 -25.246,-12.399 -1.638,-1.626 -3.032,-3.339 -4.287,-5.13 -1.32,2.265 -2.92,4.385 -4.844,6.327 -5.972,6.02 -13.174,9.202 -21.814,9.202 -3.215,0 -7.417,-0.355 -8.417,-1.06 v 33.126 h -23 V 32.39 c 0,0.585 -1.44,1.166 -2.005,1.733 -6.92,6.915 -15.109,10.422 -24.94,10.422 -4.241,0 -9.055,-0.768 -12.055,-2.288 v -1.646 h -24 v -88 h 24 v 23.386 c 3,-1.563 7.651,-2.351 11.869,-2.351 9.834,0 18.409,3.506 25.326,10.424 0.578,0.576 1.805,1.168 1.805,1.762 v -9.221 h 23 v 36.507 c 0,2.38 0.249,4.194 2.157,6.065 1.934,1.897 3.548,2.744 5.973,2.744 2.357,0 3.809,-0.754 5.52,-2.52 1.775,-1.829 2.35,-3.77 2.35,-6.289 v -36.507 h 23 v 7.662 c 0,-0.071 0.295,-0.153 0.37,-0.226 6.948,-6.901 15.403,-10.401 25.152,-10.401 4.297,0 7.478,0.753 12.478,2.245 v 0.72 h 16.671 6.525 16.804 v 40.641 c 0,0.87 -0.056,1.852 1.256,3.147 1.36,1.343 2.271,1.528 3.179,1.528 0.796,0 1.458,-0.219 3.161,-1.918 l 6.404,-6.868 c 0,0 -3.756,-27.11 3.997,-32.82 7.753,-5.71 18.753,2.79 18.753,2.79 0,0 1,7.5 9.75,-0.75 3.281,-3.093 6.433,-7.418 10,-7.5 5.426,-0.125 9.881,3.113 14.928,4.52 4.058,1.131 8.631,1.483 12.723,0.725 6.282,-1.165 12.566,-2.33 18.849,-3.495 v 9.07 c 0,-0.553 0.369,-1.098 0.91,-1.636 6.949,-6.899 15.177,-10.399 24.922,-10.399 4.3,0 8.168,0.753 12.168,2.245 v 0.72 h 16.181 6.524 16.295 v 40.641 c 0,1.004 0.39,1.921 1.629,3.147 1.363,1.343 2.521,1.528 3.428,1.528 0.796,0 1.731,-0.219 3.433,-1.921 l 5.51,-5.666 V 2.352 c 0,-8.014 2.984,-13.828 8.531,-19.094 5.41,-5.14 12.343,-6.647 19.95,-6.647 h 9.519 v 21 h -9.519 c -1.624,0 -2.313,0.039 -3.411,1.125 -0.773,0.764 -1.07,1.383 -1.07,3.616 v 17.259 h 14 v 21 h -14 z" /></g><g
           transform="translate(308.1782,274.0264)"
           id="g32"><path
             id="path34"
             style="fill:#44a1a0;fill-opacity:1;fill-rule:nonzero;stroke:none"
             d="m 0,0 c -2.698,0.529 -7.114,0.527 -9.812,-0.006 0,0 -4.735,-0.934 -8.59,-4.854 -3.868,-3.931 -5.75,-8.393 -5.75,-13.641 0,-5.236 1.875,-9.658 5.732,-13.514 3.856,-3.857 8.295,-5.733 13.568,-5.733 5.259,0 9.635,1.867 13.378,5.703 3.767,3.86 5.599,8.31 5.599,13.6 0,5.287 -1.85,9.754 -5.654,13.652 C 4.691,-0.92 0,0 0,0 m -23.935,-62.867 c 0,-2.75 -2.25,-5 -5,-5 h -0.005 c -2.75,0 -5,2.25 -5,5 V 4.337 c 0,2.75 2.25,5 5,5 h 0.005 c 2.75,0 5,-1.314 5,-2.92 0,-1.606 1.231,-1.969 2.736,-0.804 l 1.567,0.898 c 4.649,2.67 9.567,4.021 14.618,4.021 8.037,0 14.978,-2.863 20.629,-8.512 5.651,-5.651 8.512,-12.517 8.512,-20.413 0,-7.894 -2.861,-14.762 -8.512,-20.411 -5.65,-5.649 -12.59,-8.512 -20.629,-8.512 -4.901,0 -9.723,1.331 -14.339,3.961 l -1.661,0.947 c -1.607,1.248 -2.921,0.019 -2.921,-2.731 z" /></g><g
           transform="translate(386.5654,232.9053)"
           id="g36"><path
             id="path38"
             style="fill:#44a1a0;fill-opacity:1;fill-rule:nonzero;stroke:none"
             d="m 0,0 c 0,-2.75 -2.25,-5 -5,-5 h -0.005 c -2.75,0 -5,2.25 -5,5 v 21.752 c 0,2.75 -0.41,7.212 -0.911,9.916 0,0 -0.529,2.856 -3.496,5.917 -2.939,3.026 -6.371,4.499 -10.489,4.499 -4.154,0 -7.709,-1.509 -10.873,-4.611 -3.148,-3.086 -3.695,-5.819 -3.695,-5.819 -0.54,-2.696 -0.982,-7.152 -0.982,-9.902 V 0 c 0,-2.75 -2.25,-5 -5,-5 h -0.005 c -2.75,0 -5,2.25 -5,5 v 77.972 c 0,2.75 2.25,5 5,5 h 0.005 c 2.75,0 5,-2.25 5,-5 V 51.887 c 0,-2.75 2,-3.969 4.444,-2.708 0,0 4.799,2.474 11.106,2.474 6.961,0 12.916,-2.446 17.704,-7.271 4.776,-4.819 6.269,-12.717 6.269,-12.717 C -0.418,28.963 0,24.502 0,21.752 Z" /></g><g
           transform="translate(423.4404,274.0264)"
           id="g40"><path
             id="path42"
             style="fill:#44a1a0;fill-opacity:1;fill-rule:nonzero;stroke:none"
             d="m 0,0 c -2.698,0.529 -7.114,0.527 -9.812,-0.006 0,0 -4.734,-0.934 -8.59,-4.854 -3.869,-3.931 -5.751,-8.393 -5.751,-13.641 0,-5.236 1.876,-9.658 5.732,-13.514 3.858,-3.857 8.296,-5.733 13.57,-5.733 5.258,0 9.633,1.867 13.378,5.703 3.765,3.86 5.598,8.31 5.598,13.6 0,5.287 -1.85,9.754 -5.652,13.652 C 4.691,-0.92 0,0 0,0 m -0.06,-46.653 c -2.725,-0.365 -7.165,-0.239 -9.865,0.281 0,0 -9.975,1.918 -15.657,7.561 -5.69,5.648 -8.574,12.517 -8.574,20.418 0,7.901 2.884,14.771 8.575,20.421 5.684,5.644 12.602,8.504 20.566,8.504 5.198,0 10.232,-1.392 14.959,-4.137 l 1.448,-0.842 c 1.383,-1.07 2.515,-0.656 2.515,0.92 0,1.575 2.25,2.864 5,2.864 h 0.003 c 2.75,0 5,-2.25 5,-5 v -45.458 c 0,-2.75 -2.25,-5 -5,-5 h -0.003 c -2.75,0 -5,1.325 -5,2.944 0,1.618 -1.21,1.98 -2.689,0.802 l -1.529,-0.901 c -4.548,-2.681 -9.749,-3.377 -9.749,-3.377" /></g><g
           transform="translate(463.8784,232.9053)"
           id="g44"><path
             id="path46"
             style="fill:#44a1a0;fill-opacity:1;fill-rule:nonzero;stroke:none"
             d="m 0,0 c 0,-2.75 -2.25,-5 -5,-5 h -0.006 c -2.75,0 -5,2.25 -5,5 v 45.458 c 0,2.75 2.25,5 5,5 H -5 c 2.75,0 5,-0.535 5,-1.187 0,-0.654 0.352,-0.962 0.783,-0.685 l 0.41,0.238 c 3.246,1.878 6.907,2.829 10.877,2.829 4.106,0 7.333,-1.745 7.333,-1.745 2.419,-1.308 4.695,-2.599 5.056,-2.868 0.363,-0.269 0.66,-2.739 0.66,-5.489 V 37.69 c 0,-2.75 -1.253,-3.748 -2.785,-2.218 -1.531,1.53 -4.604,4.104 -6.829,5.72 0,0 -1.228,0.892 -4.198,0.892 -2.974,0 -5.552,-1.113 -7.875,-3.408 C 1.123,36.396 0.998,35.785 0.998,35.785 0.449,33.091 0,28.636 0,25.886 Z" /></g><g
           transform="translate(566.3086,232.9053)"
           id="g48"><path
             id="path50"
             style="fill:#9dd37a;fill-opacity:1;fill-rule:nonzero;stroke:none"
             d="m 0,0 c 0,-2.75 -2.25,-5 -5,-5 h -0.003 c -2.75,0 -5,2.25 -5,5 v 25.668 c 0,2.75 -0.385,7.217 -0.855,9.927 0,0 -0.191,1.097 -2.338,3.274 -2.136,2.163 -4.631,3.215 -7.626,3.215 -3.03,0 -5.666,-1.124 -8.067,-3.436 -2.366,-2.278 -2.49,-2.869 -2.49,-2.869 -0.563,-2.691 -1.025,-7.143 -1.025,-9.893 V 0 c 0,-2.75 -2.25,-5 -5,-5 h -0.003 c -2.75,0 -5,2.25 -5,5 v 25.886 c 0,2.75 -0.413,7.212 -0.917,9.915 0,0 -0.138,0.735 -2.305,2.99 -2.134,2.215 -4.635,3.293 -7.652,3.293 -3.043,0 -5.632,-1.11 -7.916,-3.394 -2.283,-2.283 -2.408,-2.902 -2.408,-2.902 -0.542,-2.696 -0.986,-7.152 -0.986,-9.902 V 0 c 0,-2.75 -2.25,-5 -5,-5 h -0.004 c -2.75,0 -5,2.25 -5,5 v 45.458 c 0,2.75 2.25,5 5,5 h 0.004 c 2.75,0 5,-0.581 5,-1.291 0,-0.71 0.477,-0.994 1.06,-0.631 l 0.56,0.313 c 3.344,1.862 6.877,2.804 10.505,2.804 3.791,0 7.435,-1.3 10.829,-3.865 l 1.575,-1.191 c 1.406,-1.595 3.789,-1.539 5.295,0.125 l 1.774,1.211 c 3.62,2.469 8.025,3.72 13.094,3.72 5.269,0 9.942,-1.912 13.89,-5.687 3.987,-3.819 5.142,-10.374 5.142,-10.374 C -0.391,32.884 0,28.418 0,25.668 Z" /></g><g
           transform="translate(604.2715,274.0264)"
           id="g52"><path
             id="path54"
             style="fill:#9dd37a;fill-opacity:1;fill-rule:nonzero;stroke:none"
             d="m 0,0 c -2.698,0.529 -7.113,0.527 -9.812,-0.006 0,0 -4.736,-0.934 -8.591,-4.854 -3.868,-3.931 -5.749,-8.393 -5.749,-13.641 0,-5.236 1.872,-9.658 5.731,-13.514 3.858,-3.857 8.298,-5.733 13.569,-5.733 5.26,0 9.633,1.867 13.377,5.703 3.768,3.86 5.598,8.31 5.598,13.6 0,5.287 -1.848,9.754 -5.652,13.652 C 4.689,-0.92 0,0 0,0 m -0.059,-46.653 c -2.725,-0.365 -7.166,-0.239 -9.866,0.281 0,0 -9.975,1.918 -15.656,7.561 -5.692,5.648 -8.576,12.517 -8.576,20.418 0,7.901 2.884,14.771 8.576,20.421 5.684,5.644 12.603,8.504 20.566,8.504 5.201,0 10.233,-1.392 14.958,-4.137 l 1.448,-0.842 c 1.382,-1.07 2.514,-0.656 2.514,0.92 0,1.575 2.25,2.864 5,2.864 h 0.007 c 2.75,0 5,-2.25 5,-5 v -45.458 c 0,-2.75 -2.25,-5 -5,-5 h -0.007 c -2.75,0 -5,1.325 -5,2.944 0,1.618 -1.21,1.98 -2.688,0.802 l -1.528,-0.901 c -4.551,-2.681 -9.748,-3.377 -9.748,-3.377" /></g><g
           transform="translate(644.709,232.9053)"
           id="g56"><path
             id="path58"
             style="fill:#9dd37a;fill-opacity:1;fill-rule:nonzero;stroke:none"
             d="m 0,0 c 0,-2.75 -2.25,-5 -5,-5 h -0.004 c -2.75,0 -5,2.25 -5,5 v 45.458 c 0,2.75 2.25,5 5,5 H -5 c 2.75,0 5,-0.535 5,-1.187 0,-0.654 0.352,-0.962 0.781,-0.685 l 0.412,0.236 c 3.247,1.88 6.905,2.831 10.877,2.831 4.106,0 7.335,-1.746 7.335,-1.746 2.419,-1.308 4.695,-2.598 5.056,-2.867 0.36,-0.269 0.656,-2.739 0.656,-5.489 V 37.69 c 0,-2.75 -1.253,-3.748 -2.783,-2.218 -1.531,1.53 -4.605,4.104 -6.83,5.72 0,0 -1.228,0.892 -4.194,0.892 -2.976,0 -5.554,-1.113 -7.878,-3.408 C 1.123,36.396 0.999,35.785 0.999,35.785 0.449,33.091 0,28.636 0,25.886 Z" /></g><g
           transform="translate(696.5752,232.0371)"
           id="g60"><path
             id="path62"
             style="fill:#9dd37a;fill-opacity:1;fill-rule:nonzero;stroke:none"
             d="m 0,0 c 0,-2.631 -0.734,-4.784 -1.632,-4.784 -0.896,0 -3.845,0.404 -6.55,0.898 0,0 -6.249,1.141 -10.485,5.164 -4.28,4.064 -5.524,10.663 -5.524,10.663 -0.51,2.703 -0.927,7.163 -0.927,9.913 v 44.154 c 0,2.75 2.25,5 5,5 h 0.003 c 2.75,0 5,-2.25 5,-5 v -9.791 c 0,-2.75 2.25,-5 5,-5 h 5.008 c 2.75,0 5,-2.153 5,-4.783 0,-2.632 -2.25,-4.785 -5,-4.785 h -5.008 c -2.75,0 -5,-2.25 -5,-5 V 21.854 c 0,-2.75 0.39,-7.215 0.868,-9.923 0,0 0.257,-1.454 2.565,-3.739 2.323,-2.293 3.5,-2.508 3.5,-2.508 2.706,-0.495 5.654,-0.899 6.55,-0.899 C -0.734,4.785 0,2.632 0,0" /></g><g
           transform="translate(726.7305,235.1113)"
           id="g64"><path
             id="path66"
             style="fill:#9dd37a;fill-opacity:1;fill-rule:nonzero;stroke:none"
             d="m 0,0 c 0,-5.867 -4.759,-10.621 -10.621,-10.621 -5.868,0 -10.623,4.754 -10.623,10.621 0,5.868 4.755,10.621 10.623,10.621 C -4.759,10.621 0,5.868 0,0" /></g><g
           transform="translate(724.5518,225.0244)"
           id="g68"><path
             id="path70"
             style="fill:#ffffff;fill-opacity:1;fill-rule:nonzero;stroke:none"
             d="m 0,0 -18.087,18.086 1.644,1.643 L 1.644,1.644 Z" /></g></g></g><text
       id="text74"
       style="font-variant:normal;font-weight:normal;font-stretch:normal;font-size:21.74379921px;font-family:'Baloo Bhaina';-inkscape-font-specification:BalooBhaina-Regular;writing-mode:lr-tb;fill:#3c8785;fill-opacity:1;fill-rule:nonzero;stroke:none"
       transform="matrix(0.90743108,0,0,-1,540.0107,202.8457)"><tspan
         id="tspan72"
         y="0"
         x="0 12.089553 26.701385 38.616989 42.965748 55.598896 70.884789 83.800606 95.020409 108.65377 122.11318 133.26775 145.18335 149.53212 164.01349 177.03802 191.47591 205.80507 217.50323 229.02745 244.31334 257.5553">THE PORTABLE DRUGSTORE</tspan></text>
</g></svg>