<?xml version="1.0" encoding="utf-8"?>
<!-- Generator: Adobe Illustrator 18.0.0, SVG Export Plug-In . SVG Version: 6.00 Build 0)  -->
<!DOCTYPE svg PUBLIC "-//W3C//DTD SVG 1.1//EN" "http://www.w3.org/Graphics/SVG/1.1/DTD/svg11.dtd">
<svg version="1.1" id="Layer_1" xmlns="http://www.w3.org/2000/svg" xmlns:xlink="http://www.w3.org/1999/xlink" x="0px" y="0px"
	 viewBox="0 0 597.2 560" enable-background="new 0 0 597.2 560" xml:space="preserve">
<path display="none" fill="#DCE0D1" d="M-31.2,194c-6.5-7.1-10.6-15.5-12.9-24.7c-4.1-17.1-2.4-33.5,6.1-49
	c4.5-8.1,10.7-14.5,19.2-18.6c0.4-0.2,0.8-0.3,1-0.4c-1.6,3.4-3.4,6.7-4.7,10.2c-6.7,19-5.7,37.4,4.2,55.1
	c4.5,8,10.9,14.2,19.6,17.7c0.8,0.3,1.7,0.6,2.5,0.9c-2.2,2.1-4.2,4.5-6.6,6.3c-6.2,4.7-13.2,6.7-20.9,5.1
	C-26.3,196-28.8,194.8-31.2,194"/>
<path display="none" fill="#999999" d="M-31.2,194c2.5,0.9,4.9,2,7.4,2.5c7.7,1.6,14.7-0.4,20.9-5.1c2.4-1.8,4.4-4.2,6.6-6.3
	c1.9-2.9,4.1-5.6,5.7-8.7c4.2-7.9,6.4-16.4,6.9-25.2c0.2-3.8,0-7.6,0-11.4c0-0.4,0-0.8,0-1.5c0.6,0.4,1.1,0.7,1.6,1
	c12.5,8.8,18.4,24,14.9,39c-3.4,14.6-15.5,25.9-30.5,28C-10.8,208.3-22,204-31,194.3C-31.1,194.2-31.2,194.1-31.2,194"/>
<path fill="#999999" d="M278.6,264.4c0.7,0,1.4,0,2.1,0c9.4-0.1,18.9-0.2,28.3-0.4c8.3-0.2,16.6-0.6,24.9-0.9c1.7-0.1,3.3-0.1,5-0.2
	c-3.2,0.7-6.5,1.4-9.7,2.1c-12.6,2.7-24.9,6.4-36.8,11.2c-0.3,0.1-0.5,0.3-0.8,0.4c-11.2,4.5-21.9,10-31.8,17
	c-0.6,0.5-1.2,1.1-1.7,1.7c0.6-2.2,1.2-4.4,1.8-6.7c3.7-9.3,10-16.8,17.6-23.1C277.9,265.1,278.3,264.8,278.6,264.4"/>
<path fill="#DCE0D1" d="M287.3,264.4c-9.1-0.1-18.1,0-27.2-0.3c-17-0.5-34-1.1-50.9-2c-11.2-0.6-22.4-1.8-33.6-2.7
	c-0.8-0.1-1.5,0-1.8-1.2c-2.3-11.2-4.6-22.5-6.9-33.8c78.2,7.7,156.4,7.7,234.7,0c-1.2,5.8-2.4,11.5-3.5,17.3
	c-1.2,5.8-2.3,11.5-3.6,17.5c-2.6,0.3-5.3,0.6-8,0.8c-11.7,0.9-23.3,1.7-35,2.5c-1.3,0.1-2.6,0.2-3.9,0.3c-1.7,0.1-3.3,0.2-5,0.2
	c-8.3,0.3-16.6,0.7-24.9,0.9c-9.4,0.2-18.9,0.3-28.3,0.4C288.8,264.4,288,264.4,287.3,264.4"/>
<path fill="#DCE0D1" d="M290.2,333.9c-0.3,13.1-0.6,26.2-1,39.3c-0.3,11.2-0.6,22.5-0.9,33.7c-0.2,5.9-0.6,11.8-0.9,17.7
	c-0.3,8.6-0.6,17.2-0.9,25.7c-0.3,8.3-0.5,16.5-0.7,25.1c-0.3-0.4-0.5-0.5-0.6-0.7c-7-12.6-14-25.2-21-37.8
	c-0.4-0.6-0.5-1.4-0.6-2.2c-0.3-7-0.4-14-0.7-21c-0.4-9.9-0.9-19.8-1.4-29.7c-0.4-8.5-0.8-17-1.2-25.4c-0.6-11.3-1.1-22.5-1.7-33.8
	c5.1,1.2,10.2,2.3,15.1,3.7C279.3,330.1,284.7,332.1,290.2,333.9"/>
<path fill="#DCE0D1" d="M258.2,295.2c0.6-0.6,1.1-1.2,1.7-1.7c9.9-7,20.5-12.5,31.8-17c-0.1,4.3-0.2,8.6-0.3,12.9
	c-0.2,7-0.4,14-0.6,21c0,0.5-0.2,1-0.3,1.6c-7.8-3.5-15.6-7-23.5-10.3c-2.9-1.2-5.9-2.1-8.9-3.1
	C258.1,297.4,258.1,296.3,258.2,295.2"/>
<path fill="#252527" d="M330.8,354.8c0-2.3-1.9-6.1-1.9-6.1s-5.3-10.4-9.3-14.7c-3.3-3.5-6.9-6.7-10.3-10.1
	c-0.2-0.1-0.4-0.2-0.6-0.4c-5.7-4.4-11.7-8.2-18.1-11.5c-7.8-3.5-15.6-7-23.5-10.3c-2.9-1.2-5.9-2.1-8.9-3.1
	c-9.8-2.7-19.6-5.8-29.5-8.1c-9.3-2.2-18.1-4.5-27.5-6.3c-1.2-0.2-5.6-0.7-5.7-0.1c0,0.4,0.4,2,0.5,2.4c2,9.7,4,19.4,6,29.1
	c0.7,3.5,0.7,3.5,4.5,3.6c4.3,0.2,8.6,0.3,12.8,0.6c3.3,0.2,6.5,0.3,9.8,0.6c3.9,0.4,7.7,1,11.6,1.5c1.8,0.2,3.5,0.3,5.3,0.6
	c4.2,0.8,8.4,1.6,12.7,2.4c5.1,1.2,10.2,2.3,15.1,3.7c5.5,1.6,10.9,3.6,16.4,5.4c2.3,0.8,4.6,1.7,6.9,2.5c1.1,0.5,2.2,0.9,3.3,1.5
	c5.9,2.9,11.9,5.7,17.7,8.9c4.1,2.3,8,5,12,7.5l0.7,0.6C330.8,354.8,330.8,355,330.8,354.8"/>
<path fill="#363636" d="M291.4,289.5c46.3,0.7,92.6-0.6,138.8-5.6c-1.7,8.3-3.4,16.5-5,24.6c-0.6,3-1.3,6-1.8,9
	c-0.2,1-0.6,1.4-1.6,1.5c-10.2,0.8-20.5,1.8-30.7,2.5c-27,1.8-54,2.5-81.1,2.4c-0.3,0-0.5,0-0.8,0c-0.2-0.1-0.4-0.2-0.6-0.4
	c-5.7-4.4-11.7-8.2-18.1-11.5c0.1-0.5,0.3-1,0.3-1.6C291,303.5,291.2,296.5,291.4,289.5"/>
<path fill="#363636" d="M258.2,295.2c0,1.1,0,2.2,0,3.3c-9.8-2.7-19.6-5.8-29.5-8.1c-9.3-2.2-18.7-3.7-28.1-5.6
	c-1.2-0.2-2.5-0.2-3.7-0.5c-0.9-0.2-0.9,0.3-1,0.9c-0.1-0.4-0.2-0.8-0.4-1.4c21.6,2.4,43,4,64.5,4.8
	C259.3,290.8,258.7,293,258.2,295.2"/>
<path fill="#363636" d="M206.4,319c4.3,0.2,8.6,0.3,12.8,0.6c3.3,0.2,6.5,0.3,9.8,0.6c3.9,0.4,7.7,1,11.6,1.5
	c-5.3-0.3-10.5-0.6-15.8-1c-5.9-0.4-11.7-1-17.6-1.5C207,319.2,206.7,319.1,206.4,319"/>
<path fill="#363636" d="M330,354.4c-4-2.5-7.9-5.3-12-7.5c-5.8-3.2-11.8-6-17.7-8.9c-1.1-0.5-2.2-1-3.3-1.5c0.1,0.6,0.2,1.1,0.2,1.7
	c0.3,11.8,0.6,23.7,1,35.5c0.7,25.2,1.3,50.4,2,75.6c0.4,14.3,0.8,28.6,1.3,42.8c0,0.8,0.2,1.6,0.6,2.3C309,506.9,316,519.5,323,532
	c0.1,0.2,0.3,0.4,0.6,0.8c0.2-5.9,0.3-11.5,0.5-17.2c0.5-13.5,0.9-27,1.4-40.5c0.3-6.8,0.6-13.5,1-20.2c0.5-8.8,1-17.7,1.4-26.5
	c0.4-7.6,0.7-15.1,1.1-22.7c0.8-16.8,2.1-33.9,1.8-50.8L330,354.4z"/>
<path fill="#999999" d="M252.2,165.7c0,0,23.5,50.3,67.6,17.2c0,0-11.8,41.5-60,31.5C259.8,214.4,241.7,192.2,252.2,165.7z"/>
<path fill="#DCE0D1" d="M282.8,27.2c0,0,4.2,21-19.3,49.5c-23.5,28.5-73.4,96.1,0,139.3c0,0-29.4-26.9,5.5-78.5
	C303.7,85.9,286.5,39.3,282.8,27.2z"/>
</svg>
