<svg id="Layer_1" data-name="Layer 1" xmlns="http://www.w3.org/2000/svg" viewBox="0 0 213.84 397.65"><defs><style>.cls-1{fill:#989898;}.cls-2{fill:#dde1d1;}.cls-3{fill:#262627;}.cls-4{fill:#373636;}</style></defs><title>logo</title><path class="cls-1" d="M293.7,383.71l1.67,0c7.42-.1,14.84-0.13,22.25-0.3,6.53-.15,13.07-0.46,19.6-0.7l3.94-.17-7.65,1.65A172.25,172.25,0,0,0,304.59,393c-0.22.09-.43,0.21-0.64,0.31a118.81,118.81,0,0,0-25,13.34,12.13,12.13,0,0,0-1.36,1.31L279,402.7c2.93-7.34,7.84-13.17,13.84-18.18,0.3-.25.57-0.54,0.86-0.81" transform="translate(-199.08 -197.14)"/><path class="cls-2" d="M293.7,383.71c-7.12-.07-14.24,0-21.35-0.25-13.35-.42-26.7-0.86-40-1.56-8.82-.46-17.62-1.38-26.42-2.11-0.61,0-1.19,0-1.38-.93-1.77-8.85-3.6-17.68-5.43-26.55a938.08,938.08,0,0,0,184.55,0q-1.4,6.81-2.79,13.57c-0.93,4.54-1.85,9.07-2.8,13.76-2.08.22-4.17,0.49-6.27,0.65q-13.75,1-27.52,2l-3.1.24-3.94.17c-6.53.24-13.06,0.54-19.6,0.7-7.42.17-14.84,0.21-22.25,0.3l-1.67,0" transform="translate(-199.08 -197.14)"/><path class="cls-2" d="M302.78,438.39q-0.38,15.47-.76,30.94c-0.23,8.83-.45,17.67-0.74,26.5-0.15,4.63-.5,9.26-0.69,13.89-0.27,6.74-.49,13.49-0.7,20.24-0.2,6.5-.37,13-0.55,19.72a6.05,6.05,0,0,1-.44-0.57q-8.27-14.84-16.51-29.69a3.94,3.94,0,0,1-.44-1.71c-0.21-5.51-.32-11-0.56-16.54-0.33-7.79-.74-15.57-1.12-23.35q-0.48-10-1-20-0.65-13.3-1.31-26.6c4,1,8,1.78,11.91,2.92,4.34,1.26,8.59,2.83,12.88,4.26" transform="translate(-199.08 -197.14)"/><path class="cls-2" d="M277.61,407.95a12.11,12.11,0,0,1,1.36-1.31,118.79,118.79,0,0,1,25-13.34q-0.1,5.07-.2,10.15-0.25,8.24-.51,16.49a7.61,7.61,0,0,1-.24,1.22c-6.14-2.72-12.27-5.49-18.44-8.14-2.26-1-4.64-1.65-7-2.47q0-1.3,0-2.6" transform="translate(-199.08 -197.14)"/><path class="cls-3" d="M334.7,454.83a15.66,15.66,0,0,0-1.5-4.81s-4.19-8.18-7.35-11.57c-2.58-2.76-5.4-5.3-8.12-7.94a5.74,5.74,0,0,1-.5-0.32,88.15,88.15,0,0,0-14.24-9c-6.14-2.72-12.27-5.49-18.44-8.14-2.26-1-4.64-1.65-7-2.47-7.74-2.15-15.42-4.53-23.23-6.39-7.29-1.74-14.24-3.54-21.6-5-1-.19-4.42-0.55-4.46-0.08,0,0.32.32,1.59,0.38,1.9q2.37,11.43,4.74,22.86c0.57,2.79.54,2.79,3.51,2.8,3.37,0.15,6.74.27,10.1,0.44,2.57,0.13,5.15.25,7.71,0.51,3.05,0.31,6.09.77,9.14,1.17,1.38,0.16,2.78.26,4.15,0.5,3.33,0.6,6.64,1.27,10,1.92,4,1,8,1.78,11.91,2.92,4.34,1.27,8.59,2.83,12.88,4.26l5.41,2c0.87,0.39,1.75.74,2.61,1.16,4.64,2.31,9.35,4.51,13.89,7,3.25,1.78,6.3,3.94,9.43,5.93l0.59,0.49v-0.1" transform="translate(-199.08 -197.14)"/><path class="cls-4" d="M303.75,403.44c36.45,0.58,72.83-.5,109.18-4.44L409,418.36c-0.48,2.35-1,4.69-1.42,7a1.21,1.21,0,0,1-1.28,1.2c-8,.63-16.09,1.41-24.15,2-21.24,1.44-42.5,2-63.79,1.93-0.2,0-.4,0-0.6,0a5.85,5.85,0,0,1-.5-0.32,88.14,88.14,0,0,0-14.24-9,7.58,7.58,0,0,0,.24-1.22q0.27-8.24.51-16.49" transform="translate(-199.08 -197.14)"/><path class="cls-4" d="M277.61,407.95q0,1.3,0,2.6c-7.74-2.15-15.42-4.53-23.23-6.39-7.29-1.74-14.7-2.95-22.06-4.37-1-.19-2-0.18-2.94-0.4-0.71-.16-0.74.2-0.78,0.67l-0.28-1.11c17,1.89,33.82,3.15,50.71,3.75l-1.39,5.25" transform="translate(-199.08 -197.14)"/><path class="cls-4" d="M236.92,426.67c3.37,0.15,6.74.27,10.1,0.44,2.57,0.13,5.15.25,7.71,0.51,3.05,0.31,6.09.77,9.14,1.17-4.14-.25-8.29-0.46-12.42-0.76-4.62-.35-9.23-0.78-13.84-1.19a4.57,4.57,0,0,1-.69-0.16" transform="translate(-199.08 -197.14)"/><path class="cls-4" d="M334.12,454.44c-3.14-2-6.18-4.15-9.43-5.93-4.55-2.48-9.25-4.68-13.89-7-0.85-.42-1.74-0.78-2.61-1.16,0,0.43.13,0.87,0.14,1.3q0.38,14,.75,27.94,0.8,29.73,1.6,59.47,0.47,16.84,1,33.68a4.16,4.16,0,0,0,.46,1.82q8.19,14.79,16.44,29.56a8,8,0,0,0,.49.67c0.13-4.64.24-9.07,0.39-13.49q0.54-15.93,1.13-31.85c0.2-5.31.49-10.62,0.77-15.92,0.36-6.94.77-13.88,1.12-20.83,0.3-5.95.54-11.9,0.83-17.85,0.66-13.24,1.61-26.66,1.39-39.93Z" transform="translate(-199.08 -197.14)"/><path class="cls-1" d="M272.94,306.11s18.48,39.6,53.13,13.53c0,0-9.24,32.67-47.19,24.75C278.88,344.39,264.69,326.9,272.94,306.11Z" transform="translate(-199.08 -197.14)"/><path class="cls-2" d="M297,197.14s3.3,16.5-15.18,38.94-57.74,75.56,0,109.55c0,0-23.1-21.12,4.29-61.7S299.92,206.71,297,197.14Z" transform="translate(-199.08 -197.14)"/></svg>