<?xml version="1.0" encoding="UTF-8" standalone="no"?>
<svg width="51px" height="102px" viewBox="0 0 51 102" version="1.1" xmlns="http://www.w3.org/2000/svg" xmlns:xlink="http://www.w3.org/1999/xlink">
    <!-- Generator: Sketch 3.8.3 (29802) - http://www.bohemiancoding.com/sketch -->
    <title>Group 2</title>
    <desc>Created with Sketch.</desc>
    <defs></defs>
    <g id="Page-1" stroke="none" stroke-width="1" fill="none" fill-rule="evenodd">
        <g id="Artboard-1" transform="translate(-38.000000, -16.000000)" fill="#FFFFFF">
            <g id="Group-2" transform="translate(38.000000, 16.000000)">
                <g id="mouse">
                    <g id="Page-1">
                        <g id="Artboard-1">
                            <g id="Group-2">
                                <g id="mouse" transform="translate(8.000000, 0.000000)">
                                    <g id="Page-1">
                                        <g id="mouse">
                                            <g id="Group">
                                                <path d="M17,0 C7.626,0 0,7.626 0,17 L0,47 C0,56.374 7.626,64 17,64 C26.374,64 34,56.374 34,47 L34,17 C34,7.626 26.374,0 17,0 L17,0 L17,0 L17,0 Z M32,47 C32,55.271 25.271,62 17,62 C8.729,62 2,55.271 2,47 L2,17 C2,8.729 8.729,2 17,2 C25.271,2 32,8.729 32,17 L32,47 L32,47 L32,47 L32,47 Z" id="Shape"></path>
                                                <rect id="Rectangle-path" x="16" y="10" width="2" height="8"></rect>
                                            </g>
                                        </g>
                                    </g>
                                </g>
                                <g id="Scroll" transform="translate(0.000000, 82.000000)" font-weight="normal" font-size="20" font-family="HelveticaNeue-Italic, Helvetica Neue" font-style="italic">
                                    <text>
                                        <tspan x="0" y="19">Scroll</tspan>
                                    </text>
                                </g>
                            </g>
                        </g>
                    </g>
                </g>
            </g>
        </g>
    </g>
</svg>